<svg width="557" height="557" viewBox="0 0 557 557" fill="none" xmlns="http://www.w3.org/2000/svg">
<path d="M154.55 307.75H154.378H154.315L154.142 307.593L151.82 303.329L149.513 299.738L147.238 296.853L144.994 294.642L143.158 293.655L140.647 293.247L137.619 293.435L133.492 294.188L131.813 294.533L128.879 294.658L124.548 294.188L116.435 292.933L107.899 291.005L99.8644 287.979L92.6932 284.09L85.9614 279.23L80.0299 273.789L74.93 267.988L70.6933 261.81L67.2881 255.256L64.9501 249.094L63.3024 242.635L62.3139 235.877L62 228.821L62.4864 221.295L63.9301 214.036L66.2054 207.325L69.3595 200.85L73.3766 194.609L78.2567 188.604L81.9443 184.81L85.8516 181.361L89.9471 178.256L94.2624 175.512L99.9114 172.58L105.874 170.197L112.151 168.347L118.742 167.045L123.308 166.528L128.408 166.309L140.224 166.732L141.809 167.14L142.452 167.187L142.891 166.748L146.861 159.661L151.082 152.903L155.57 146.459L160.294 140.328L165.284 134.527L170.525 129.039L176.032 123.865L181.776 119.02L188.194 114.191L194.91 109.723L201.924 105.615L209.221 101.883L216.8 98.512L224.677 95.5016L232.837 92.8518L241.295 90.5627L242.785 89.6063L243.35 87.9129L243.46 79.995L244.025 72.1867L245.014 64.4883L246.457 56.8996L249.188 46.959L252.797 37.7711L257.285 29.3513L262.667 21.6843L268.143 15.6791L274.279 10.5834L278.908 7.57305L283.851 5.00165L289.108 2.86931L294.678 1.16029L299.904 0.141154L304.564 0L308.581 0.736921L311.971 2.28919L313.932 3.79437L315.705 5.72292L317.839 9.3448L318.42 11.1792L318.687 13.0294L318.546 15.4753L317.4 20.9317L316.003 24.8514L315.909 25.0239L314.371 27.3758L312.159 29.5395L309.177 31.5621L304.815 33.8983L300.265 36.3286L297.22 38.4766L293.548 41.879L290.285 45.5009L287.413 49.3422L284.965 53.4032L281.921 60.2236L279.881 67.5928L279.865 69.0666L280.901 68.0161L283.945 63.8925L287.366 59.91L291.132 56.0529L295.259 52.3213L300.202 48.5269L305.317 45.4068L310.605 42.9609L316.082 41.1734L319.675 40.3738L323.269 39.8721L326.674 39.7153L329.891 39.8877L332.903 40.3895L336.45 41.3773L339.667 42.663L342.57 44.2309L345.127 46.081L347.12 48.1193L348.533 50.4241L349.505 53.701L349.553 57.3856L348.533 61.8072L347.638 63.6887L346.477 65.3507L345.096 66.7775L343.464 68.0004L339.447 69.8192L333.186 71.9202L328.321 73.9898L324.289 76.2947L320.884 78.9444L311.625 88.2735L311.531 88.4146L311.516 89.0262L311.986 89.4181L325.874 93.1184L339.07 97.9005L345.394 100.691L351.561 103.749L357.54 107.073L363.346 110.679L369.293 114.771L375.052 119.161L380.607 123.849L385.958 128.851L391.136 134.151L396.094 139.748L400.865 145.643L405.447 151.837L409.825 158.657L413.042 165.101L413.45 165.666L414.124 165.948L418.487 166.544L428.859 166.199L438.682 167.061L443.39 167.939L447.956 169.115L452.381 170.605L456.665 172.376L464.401 176.578L471.635 181.847L478.382 188.181L484.628 195.597L487.562 200.238L490.559 206.478L492.787 212.531L494.106 218.238L495 226.987L494.89 235.375L493.76 243.403L491.626 251.086L489.131 257.091L485.962 262.861L482.101 268.38L477.582 273.679L473.251 277.787L468.23 281.629L462.534 285.188L456.131 288.48L451.816 290.252L447.36 291.632L442.636 292.651L437.489 293.357L432.154 293.717L426.458 293.733L413.936 292.761L412.947 292.886L412.131 293.482L404.191 304.112L402.889 306.543L402.277 309.051L402.23 310.431L402.167 316.107L401.618 325.185L400.99 330.155L399.829 335.298L398.15 340.645L395.922 346.164L393.976 350.037L391.355 354.38L384.106 364.509L377.233 372.411L373.2 376.299L368.901 379.968L362.639 384.766L356.269 389.156L349.788 393.17L343.213 396.792L336.544 400.006L329.749 402.844L322.876 405.29L315.878 407.328L304.988 409.711L296.608 410.966L288.339 411.765L280.195 412.142L272.16 412.079L264.252 411.577L256.453 410.636L248.78 409.272L241.232 407.454L234.751 405.525L228.349 403.267L222.041 400.665L215.827 397.733L209.691 394.471L203.65 390.881L197.703 386.945L191.85 382.696L184.616 376.691L178.779 371.015L173.333 364.9L168.296 358.331L163.652 351.322L161.251 347.073L159.211 342.667L156.512 334.891L154.801 326.706L154.08 318.114L154.331 309.098L154.503 308.659L154.754 308.299L154.848 307.954L154.55 307.75ZM277.653 218.144L274.138 213.017L268.708 206.29L262.824 200.693L256.5 196.224L249.721 192.885L244.135 191.05L238.266 189.906L232.131 189.451L225.728 189.67L220.676 190.298L215.952 191.27L211.574 192.602L207.51 194.264L203.54 196.381L199.649 198.984L195.82 202.041L192.069 205.569L188.366 209.708L185.196 214.052L182.576 218.583L180.505 223.334L178.449 230.593L177.806 234.999L177.617 239.405L178.135 245.645L179.547 251.87L181.462 257.232L183.894 262.343L186.656 266.937L189.888 271.28L192.885 274.463L196.683 277.724L201.469 281.221L207.903 285.47L208.609 285.925L208.734 286.003L209.252 287.022L208.86 288.088L205.172 291.616L199.413 297.323L196.385 301.384L194.282 305.696L192.807 309.976L191.944 314.257L191.709 318.537L191.771 319.87L192.305 324.307L193.293 328.588L195.208 333.793L197.875 338.779L201.281 343.545L205.439 348.092L213.097 354.819L221.382 360.526L230.452 365.292L240.149 369.008L247.336 371.078L254.57 372.709L261.82 373.916L269.116 374.669L279.19 375.029L289.327 374.543L299.527 373.257L309.789 371.141L316.914 369.134L323.583 366.704L329.765 363.881L335.493 360.636L341.55 356.512L347.136 352.059L352.236 347.246L356.865 342.087L360.427 337.007L362.828 331.786L363.832 328.29L364.413 324.652L364.632 320.701L364.46 316.546L363.942 312.642L363.047 308.957L361.776 305.492L360.145 302.247L359.533 301.259L356.394 297.229L351.216 291.961L347.246 287.994L347.167 287.9L346.979 287.069L347.481 286.379L354.213 282.115L359.956 277.74L364.585 273.428L368.571 268.819L371.898 263.927L374.581 258.753L376.998 251.979L378.425 244.767L378.786 239.593L378.582 234.481L377.798 229.464L376.464 224.509L374.55 219.602L372.07 214.757L368.932 209.928L365.307 205.569L361.431 201.869L357.116 198.592L352.361 195.707L347.167 193.245L341.754 191.38L335.979 190.109L329.953 189.482L323.818 189.467L317.808 190.109L311.955 191.38L306.557 193.23L301.52 195.691L294.82 200.144L288.857 205.365L283.647 211.339L279.19 218.081L278.547 218.52L277.778 218.301L277.653 218.144ZM434.759 201.79L430.412 201.132L427.086 201.022L426.929 201.038L425.862 201.728L425.642 202.982L426.929 208.83L427.87 214.804L428.42 220.935L428.624 227.206L428.451 235.046L427.886 242.525L426.897 249.627L425.517 256.369L425.752 257.828L426.945 258.659L427.023 258.674L430.475 259.082L433.818 259.113L437.066 258.784L440.188 258.079L444.049 256.62L447.736 254.535L450.608 252.293L453.417 249.408L455.943 246.162L458.14 242.588L459.803 238.981L460.886 235.595L461.435 232.286L461.419 229.041L460.76 224.964L459.662 221.17L458.061 217.548L456.006 214.255L454.138 211.935L452.02 209.818L447.077 206.259L441.303 203.562L434.759 201.79ZM129.742 205.287L130.118 203.735L129.553 202.418L128.251 201.806L124.061 201.728L120.091 202.104L116.325 202.966L112.763 204.283L108.746 206.494L105.419 208.987L102.563 211.7L100.21 214.663L98.3265 217.862L97.0555 220.966L95.9257 225.403L95.5648 229.84L95.7374 232.866L96.2709 235.893L97.1497 238.903L98.3893 241.929L100.68 246.006L103.505 249.596L105.812 251.823L108.401 253.798L111.257 255.523L114.379 257.012L121.598 259.443L128.439 260.571H128.627L129.443 260.383L130.118 259.897L130.526 259.16L130.605 258.329L129.161 249.878L127.921 241.412L127.466 232.992L127.56 224.462L128.188 215.808L129.365 207.059L129.742 205.287Z" fill="black"/>
<path d="M226.136 265.197C240.479 265.197 252.106 253.579 252.106 239.248C252.106 224.917 240.479 213.299 226.136 213.299C211.793 213.299 200.166 224.917 200.166 239.248C200.166 253.579 211.793 265.197 226.136 265.197Z" fill="black"/>
<path d="M329.954 265.166C344.305 265.166 355.94 253.541 355.94 239.201C355.94 224.861 344.305 213.236 329.954 213.236C315.602 213.236 303.968 224.861 303.968 239.201C303.968 253.541 315.602 265.166 329.954 265.166Z" fill="black"/>
<path d="M257.414 298.224C265.391 297.946 271.659 292.038 271.414 285.028C271.169 278.018 264.504 272.561 256.527 272.84C248.55 273.118 242.282 279.026 242.527 286.036C242.772 293.046 249.437 298.503 257.414 298.224Z" fill="black"/>
<path d="M300.427 298.032C308.116 296.774 313.419 290.08 312.272 283.081C311.125 276.083 303.962 271.429 296.274 272.687C288.585 273.945 283.282 280.638 284.429 287.637C285.576 294.636 292.739 299.29 300.427 298.032Z" fill="black"/>
<path d="M229.509 325.639L230.529 322.566L231.298 321.516L232.24 320.795L233.291 320.434L234.515 320.355L237.418 321.077L244.935 323.946L251.996 326.157L258.633 327.74L264.832 328.681L276.569 329.34L288.197 328.854L295.337 327.976L302.414 326.674L309.459 324.918L316.474 322.739L319.455 321.908L321.997 321.61L324.068 321.908L325.465 322.77L326.218 323.868L326.783 325.827L326.626 328.697L325.355 331.739L322.891 334.859L319.549 337.712L312.833 341.993L305.96 345.379L298.961 347.857L291.822 349.44L283.96 350.13L274.247 350.005L265.507 349.142L257.535 347.512L250.066 345.081L244.982 342.839L239.913 340.08L235.519 336.709L231.8 332.569L229.839 328.901L229.462 327.239L229.509 325.639Z" fill="black"/>
<path d="M151.443 520.954L151.804 521.063L153.279 522.129L154.425 524.183L155.178 527.037L155.617 530.863L155.633 531.067L155.9 537.134L155.633 541.854L154.786 545.664L153.326 548.753L152.934 549.27L152.244 549.819L147.316 552.469L143.064 554.052L137.289 555.369L131.248 556.31L124.955 556.843L118.396 557L113.453 556.765L108.463 556.091L103.395 554.977L98.2637 553.441L92.1596 550.869L87.3579 548.047L82.9485 544.707L78.8843 540.788L75.2909 536.429L72.1682 531.647L69.5791 526.504L67.5391 521.079L66.0798 515.403L65.0912 508.379L64.9971 501.417L65.9542 493.546L68.0413 485.723L69.8772 481.113L72.1368 476.738L75.0242 472.348L78.4136 468.225L82.2738 464.383L86.6204 460.84L91.1083 457.892L95.6432 455.587L101.575 453.502L108.055 452.169L115.399 451.542L124.03 451.573L128.847 451.903L133.46 452.545L137.886 453.486L142.122 454.741L145.716 456.167L148.493 457.798L150.533 459.679L151.836 461.749L152.542 464.399L152.903 470.294L152.667 476.566L152.071 480.125L150.957 483.151L149.325 485.44L147.348 486.773L146.03 487.149L144.539 487.212L141.385 486.475L137.195 485.142L132.284 484.123L126.666 483.449L120.342 483.104L116.623 483.183L113.061 483.637L109.656 484.453L106.408 485.644L103.207 487.259L100.178 489.282L98.656 490.803L97.1967 493.045L95.9884 495.741L95.1097 498.673L94.4349 502.75L94.3408 506.56L94.8586 510.104L95.957 513.38L98.1539 517.096L101.277 520.405L102.657 521.518L106.612 523.964L111.194 525.783L116.058 526.833L121.425 527.178L127.121 526.802L133.131 525.689L139.078 523.901L144.978 521.471L146.422 520.922L148.838 520.609L151.443 520.954Z" fill="black"/>
<path d="M203.932 519.182L203.037 519.543L202.676 520.437L202.723 546.621L202.331 549.6L201.139 551.936L199.883 553.175L198.298 554.115L196.337 554.79L194.03 555.182L187.298 555.511L179.939 555.15L176.848 554.413L174.682 552.877L173.505 550.791L173.097 548.032L172.721 499.113L172.956 461.122L173.427 458.112L174.729 455.839L176.298 454.584L178.37 453.785L182.952 453.189L189.668 453.142L197.749 453.424L199.836 454.365L200.95 455.525L201.782 457.077L202.3 459.037L202.519 461.405L202.676 485.833L203.241 487.228L204.622 487.824H204.638H234.342L235.268 487.448L235.661 486.523L235.77 459.398L236.163 456.92L237.245 455.133L238.705 454.13L240.666 453.628L246.566 453.252L256.123 453.11L259.685 453.612L261.081 454.239L262.211 455.133L263.106 456.278L263.733 457.673L264.22 461.232L263.89 548.126L263.529 551.136L262.29 553.347L260.234 554.711L257.362 555.291L249.25 555.464L240.745 554.993L238.768 554.539L237.293 553.582L236.194 551.795L235.786 549.318L235.661 520.766L235.19 519.653L234.076 519.182H203.932Z" fill="black"/>
<path d="M348.218 541.886L347.779 540.945L347.073 540.177L346.147 539.691L345.111 539.518H314.214L313.084 539.926L312.488 540.961L311.123 546.354L309.758 549.788L308.032 553.096L307.938 553.253L306.384 554.507L303.858 555.103L294.396 555.511L286.095 555.197L282.956 554.554L281.826 553.958L280.995 553.19L279.724 551.262L279.112 549.506L279.018 547.703L279.426 545.633L285.2 529.86L288.307 521.722L301.331 486.601L312.786 457.579L313.587 456.215L314.575 455.243L315.846 454.506L319.204 453.659L326.987 453.126L335.288 453.095L336.81 453.126L342.303 453.549L344.264 454.208L345.739 455.133L346.712 456.105L348.705 458.818L349.913 461.122L374.581 525.078L378.896 537.025L381.14 544.708L381.517 547.797L381.297 550.666L380.497 552.892L379.178 554.241L377.641 554.774L367.284 555.495L356.362 554.993L354.636 554.429L353.318 553.19L350.353 547.922L348.218 541.886ZM329.906 492.92L323.629 511.891L323.504 512.754L323.676 513.491L323.755 513.648L324.43 514.196L325.607 514.431L336.559 514.416L337.313 514.039L337.501 513.224L337.47 513.083L330.612 492.92L330.345 492.669L330 492.779L329.906 492.92Z" fill="black"/>
<path d="M429.172 507.313L428.309 506.968L427.65 507.031L427.117 507.799L426.975 509.32L427.258 530.628L426.818 549.929L426.41 551.998L425.453 553.362L424.386 553.911L420.087 554.899L415.552 555.464L410.766 555.573L405.744 555.26L401.947 554.303L400.472 553.472L399.279 552.375L399.075 552.124L398.275 550.76L397.71 549.004L397.239 544.284V465.105L397.6 460.025L398.04 458.237L398.636 456.983L399.483 455.964L400.927 454.788L402.684 453.941L404.771 453.392L407.172 453.157L420.008 453.173L422.911 453.8L424.731 454.882L426.332 456.481L442.228 476.707L460.242 500.289L460.352 500.398L460.775 500.445L461.058 500.132L461.544 496.479L461.576 466.281L461.67 462.455L462.015 459.523L462.674 457.14L463.631 455.415L464.918 454.459L466.927 453.925L476.091 453.173L484.69 453.534L486.353 453.925L487.671 454.662L488.958 456.121L489.79 458.112L490.967 463.584L491.563 471.376V535.661L491.484 542.716L490.653 548.643L489.601 551.497L487.907 553.598L485.349 554.993L482.022 555.495H474.443L469.688 555.228L467.146 554.601L465.075 553.41L464.824 553.19L460.807 549.035L446.213 529.891L430.741 510.496L429.957 508.959L429.172 507.313Z" fill="black"/>
</svg>
