<svg width="32" height="32" viewBox="0 0 932 771" fill="none" xmlns="http://www.w3.org/2000/svg">
<path d="M229.381 340.813C220.425 329.642 187.858 342.426 175.607 333.3C159.773 321.504 166.805 291.094 165.457 273.284C162.646 236.143 199.406 248.545 221.78 245.987C234.416 244.542 233.829 224.109 238.289 215.162C239.843 211.963 245.663 193.617 244.862 190.855C240.17 174.451 208.627 170.544 204.945 153.06C201.567 137.017 230.358 103.544 240.143 92.0591C259.814 68.9711 287.594 125.721 306.368 109.999C316.658 101.381 327.544 93.0421 338.483 85.1281C357.336 70.8081 316.047 34.4801 343.196 20.1801C358.676 12.0271 377.587 5.61808 394.482 1.18608C430.867 -8.36092 420.368 42.5671 435.658 52.3781L436.211 52.7251C438.9 52.9231 441.569 52.9611 444.261 52.7851C460.021 51.7561 475.37 52.3921 491.094 53.3251C492.442 52.5601 495.127 50.9401 495.838 49.6491C502.98 36.4701 499.75 16.6091 509.743 4.99608C514.799 -0.879923 525.453 -0.0979211 532.208 1.95108C548.676 6.94508 565.373 12.2771 581.334 18.7411C583.915 19.7871 587.112 22.0851 589.029 24.0641C602.473 39.5131 581.995 59.0321 581.084 75.3541C581.074 77.7451 582.227 80.9471 584.431 82.4961C598.258 92.2091 611.222 104.073 625.121 113.236C626.348 114.045 629.663 113.34 630.928 113.034C647.135 109.107 655.33 88.1431 672.648 87.4201C689.297 86.6431 698.172 108.371 704.902 116.707C736.517 155.862 723.906 160.974 687.322 182.873C685.463 183.986 681.589 189.607 682.183 192.514C684.055 201.67 688.541 210.87 691.305 219.839C693.104 225.268 696.515 239.02 699.837 242.682C704.893 247.322 717.767 244.907 724.106 244.812C735.915 244.636 755.536 244.899 757.811 260.327C759.798 273.803 759.077 291.404 759.055 305.295C758.922 314.805 759.641 320.63 752.537 329.323C741.217 343.173 701.853 324.09 696.472 342.156C691.656 358.324 686.704 375.085 684.155 391.65C682.641 405.506 725.427 416.342 724.14 433.396C723.21 445.723 713.814 454.434 707.494 464.585C701.959 472.964 696.743 482.59 690.309 490.26C685.823 495.399 681.562 495.789 676.133 496.616C661.861 498.79 635.03 466.712 625.191 472.082C613.906 478.241 594.11 493.482 582.731 501.045C573.671 504.041 538.846 501.28 526.49 502.313C523.125 507.24 520.41 513.555 517.71 518.945C512.485 529.375 507.689 539.747 503.252 550.543C485.329 534.486 474.714 537.407 452.118 537.972C426.23 538.618 405.773 533.642 386.116 554.542C369.733 536.026 361.679 538.961 338.74 536.379C335.881 523.974 347.224 512.347 344.394 504.151C343.54 501.681 341.691 499.725 339.756 498.042C334.782 493.716 328.7 490.654 323.304 486.893C316.907 482.434 310.801 475.808 303.629 472.788C300.793 471.594 297.916 471.481 294.962 472.332C284.232 475.426 272.293 489.083 260.421 494.066C255.124 496.289 249.588 496.888 244.222 494.52C240.828 493.023 237.895 490.642 235.353 487.97C227.812 480.042 209.835 452.943 205.903 442.643C194.429 412.589 235.863 409.658 242.369 393.617C243.23 391.494 242.898 388.675 242.541 386.482C241.345 379.127 238.745 371.661 236.699 364.493C234.512 356.827 232.625 348.653 229.584 341.291C229.518 341.131 229.449 340.972 229.381 340.813Z" fill="#8DCAE4"/>
<path d="M351.618 322.743C351.474 320.124 350.174 313.53 349.701 310.716L344.801 282.503C340.583 257.754 336.6 232.967 332.852 208.143C331.453 199.324 327.971 184.433 328.241 175.371C328.645 161.818 356.167 147.411 366.113 139.542C371.734 135.094 380.58 135.271 386.856 138.379C402.195 145.973 417.475 154.077 432.716 162.042L520.796 208.146L572.043 234.955C580.207 239.231 591.965 245.373 599.501 250.214C607.683 255.469 613.507 272.978 614.391 282.219C615.078 289.403 614.301 295.921 609.481 301.969C602.27 308.444 594.653 314.451 586.677 319.955C580.848 324.025 574.358 327.837 568.977 332.456C567.949 333.338 567.401 333.973 567.299 335.345C566.333 348.317 598.945 368.646 590.567 399.556C588.771 406.181 585.402 412.307 580.388 417.048C571.156 425.777 558.162 431.947 547.35 438.623C537.135 444.929 526.926 452.562 515.842 457.206C512.178 458.742 508.56 459.425 504.577 459.265C494.509 458.859 485.188 454.11 478.434 446.75C471.181 438.848 458.196 411.125 449.049 410.725C436.442 410.173 413.58 432.581 398.17 436.52C392.816 434.823 369.888 420.89 367.539 416.399C364.364 410.33 362.323 391.842 361.255 384.462L355.299 345.077C354.333 338.807 353.054 328.665 351.618 322.743Z" fill="#075671"/>
<path d="M378.527 177.373C383.833 178.362 397.58 185.257 403.299 187.963C428.429 200.128 453.399 212.621 478.201 225.44L539.301 256.456C547.217 260.484 555.42 264.138 563.207 268.397C565.053 269.407 567.048 270.401 568.357 272.098C569.687 273.823 570.604 276.706 570.15 278.883C568.113 288.67 523.296 303.43 513.884 311.097C512.585 312.156 511.994 313.116 512.157 314.827C513.199 325.821 555.03 374.496 552.752 383.004C551.706 386.911 545.498 389.49 542.304 391.259C533.868 396.899 516.708 409.703 507.889 412.709C505.161 413.639 503.334 412.992 501.183 411.204C496.219 407.079 492.804 399.771 489.455 394.276C484.693 386.464 464.391 350.684 458.683 348.392C456.823 347.645 454.162 349.442 452.727 350.461C448.663 353.343 445.092 357.18 441.405 360.531C432.774 368.375 419.17 380.54 408.581 384.917C406.573 385.748 404.101 386.309 402.046 385.311C399.461 384.055 398.957 381.168 398.193 378.642C394.701 367.104 393.756 354.751 392.027 342.852L384.149 290.787L374.163 226.359C372.36 215.178 370.084 204.008 368.644 192.787C367.533 184.126 370.382 179.746 378.527 177.373Z" fill="url(#paint1_linear_1054_27900)"/>
<path d="M526.491 502.313C538.847 501.28 573.672 504.041 582.732 501.045C582.79 501.167 582.848 501.289 582.906 501.411C601.369 511.643 586.86 523.615 579.214 537.247C590.924 536.1 605.916 536.765 617.984 536.835C644.837 536.991 662.023 532.289 682.323 553.5C689.728 543.58 698.612 538.601 710.816 536.894C723.826 535.093 737.039 536.02 750.124 536.101C758.624 536.154 766.741 535.153 775.169 536.884C786.082 539.127 794.269 544.135 801.147 552.84C813.99 536.335 828.992 535.96 848.505 536.722C872.066 537.641 897.249 530.85 917.922 546.483C926.174 552.725 929.991 562.182 931.165 572.313C931.653 576.484 931.659 580.697 931.184 584.869C930.457 591.323 928.808 597.394 927.274 603.602C924.005 616.823 926.584 627.432 909.477 628.757C900.113 629.482 891.155 628.185 882.065 628.404C897.796 639.128 914.323 645.558 911.373 668.247C909.152 685.328 905.857 702.059 902.619 718.973C900.698 729.259 898.696 740.165 892.35 748.697C884.191 759.934 871.302 766.691 857.795 769.082C848.153 770.141 838.055 769.421 828.366 769.408C818.534 769.394 808.755 769.423 798.971 769.138C785.989 768.759 775.147 762.792 766.475 753.383C751.525 766.237 741.151 770.5 721.394 769.4C695.935 767.982 676.302 774.957 654.609 758.184C642.056 772.921 632.753 769.078 615.134 769.39C607.198 769.53 598.402 769.726 590.587 769.228C588.911 767.986 587.465 766.989 585.973 765.504C580.821 769.455 573.902 770.099 567.604 769.497C557.051 768.489 536.862 772.234 528.234 766.213C524.112 769.263 520.025 770.301 514.922 769.845C501.672 768.661 480.583 772.972 469.049 766.831C460.06 770.916 453.451 769.686 443.842 769.72C438.641 769.739 433.139 770.166 427.974 769.686C424.5 769.39 421.079 768.64 417.8 767.456C414.903 766.4 413.316 765.398 410.845 763.706C395.79 773.005 387.953 768.706 372.352 769.785C333.016 772.507 339.681 753.696 345.732 723.426C348.448 710.391 350.971 697.316 353.3 684.206C335.081 693.131 328.083 691.381 307.762 690.97C306.056 708.657 300.858 726.838 298.145 744.19C293.349 774.869 276.321 770.037 251.594 769.898L210.76 769.854L169.844 769.977C163.959 770.009 155.199 770.536 149.663 770.023C144.161 769.517 138.814 767.924 133.931 765.337C130.42 766.835 125.399 769.103 121.529 769.403C109.075 770.369 96.2869 769.977 83.7819 770.014C79.6759 770.027 74.3569 768.229 70.8069 766.352C56.8449 771.936 46.0663 770.282 31.5818 770.536C12.8072 770.865 -3.92349 769.116 0.811609 745.079C2.87221 733.044 5.34801 720.291 7.61721 708.242L21.9409 633.364C24.4829 620.312 26.9569 607.246 29.3629 594.168C31.98 579.8 34.474 562.483 39.61 548.834C42.4021 541.414 53.4667 536.415 60.9809 536.428C86.4619 536.374 112.301 535.535 137.742 536.495C147.293 536.855 159.075 545.21 164.696 552.657C187.165 531.405 204.772 535.839 233.558 536.001L303.835 536.278C312.948 536.312 330.131 536.918 338.741 536.379C361.68 538.961 369.734 536.026 386.117 554.542C405.774 533.642 426.231 538.618 452.119 537.972C474.715 537.407 485.33 534.486 503.253 550.543C507.69 539.747 512.486 529.375 517.711 518.945C520.411 513.555 523.126 507.24 526.491 502.313Z" fill="url(#paint2_linear_1054_27900)"/>
<defs>
<linearGradient id="paint1_linear_1054_27900" x1="484.25" y1="413.769" x2="463.777" y2="171.031" gradientUnits="userSpaceOnUse">
<stop stop-color="#9FE6FC"/>
<stop offset="1" stop-color="#D9F4F7"/>
</linearGradient>
<linearGradient id="paint2_linear_1054_27900" x1="464.412" y1="774.181" x2="467.409" y2="500.59" gradientUnits="userSpaceOnUse">
<stop stop-color="#092C36"/>
<stop offset="1" stop-color="#065162"/>
</linearGradient>
</defs>
</svg>
