<svg width="932" height="771" viewBox="0 0 932 771" fill="none" xmlns="http://www.w3.org/2000/svg">
<path d="M229.381 340.813C220.425 329.642 187.858 342.426 175.607 333.3C159.773 321.504 166.805 291.094 165.457 273.284C162.646 236.143 199.406 248.545 221.78 245.987C234.416 244.542 233.829 224.109 238.289 215.162C239.843 211.963 245.663 193.617 244.862 190.855C240.17 174.451 208.627 170.544 204.945 153.06C201.567 137.017 230.358 103.544 240.143 92.0591C259.814 68.9711 287.594 125.721 306.368 109.999C316.658 101.381 327.544 93.0421 338.483 85.1281C357.336 70.8081 316.047 34.4801 343.196 20.1801C358.676 12.0271 377.587 5.61808 394.482 1.18608C430.867 -8.36092 420.368 42.5671 435.658 52.3781L436.211 52.7251C438.9 52.9231 441.569 52.9611 444.261 52.7851C460.021 51.7561 475.37 52.3921 491.094 53.3251C492.442 52.5601 495.127 50.9401 495.838 49.6491C502.98 36.4701 499.75 16.6091 509.743 4.99608C514.799 -0.879923 525.453 -0.0979211 532.208 1.95108C548.676 6.94508 565.373 12.2771 581.334 18.7411C583.915 19.7871 587.112 22.0851 589.029 24.0641C602.473 39.5131 581.995 59.0321 581.084 75.3541C581.074 77.7451 582.227 80.9471 584.431 82.4961C598.258 92.2091 611.222 104.073 625.121 113.236C626.348 114.045 629.663 113.34 630.928 113.034C647.135 109.107 655.33 88.1431 672.648 87.4201C689.297 86.6431 698.172 108.371 704.902 116.707C736.517 155.862 723.906 160.974 687.322 182.873C685.463 183.986 681.589 189.607 682.183 192.514C684.055 201.67 688.541 210.87 691.305 219.839C693.104 225.268 696.515 239.02 699.837 242.682C704.893 247.322 717.767 244.907 724.106 244.812C735.915 244.636 755.536 244.899 757.811 260.327C759.798 273.803 759.077 291.404 759.055 305.295C758.922 314.805 759.641 320.63 752.537 329.323C741.217 343.173 701.853 324.09 696.472 342.156C691.656 358.324 686.704 375.085 684.155 391.65C682.641 405.506 725.427 416.342 724.14 433.396C723.21 445.723 713.814 454.434 707.494 464.585C701.959 472.964 696.743 482.59 690.309 490.26C685.823 495.399 681.562 495.789 676.133 496.616C661.861 498.79 635.03 466.712 625.191 472.082C613.906 478.241 594.11 493.482 582.731 501.045C573.671 504.041 538.846 501.28 526.49 502.313C523.125 507.24 520.41 513.555 517.71 518.945C512.485 529.375 507.689 539.747 503.252 550.543C485.329 534.486 474.714 537.407 452.118 537.972C426.23 538.618 405.773 533.642 386.116 554.542C369.733 536.026 361.679 538.961 338.74 536.379C335.881 523.974 347.224 512.347 344.394 504.151C343.54 501.681 341.691 499.725 339.756 498.042C334.782 493.716 328.7 490.654 323.304 486.893C316.907 482.434 310.801 475.808 303.629 472.788C300.793 471.594 297.916 471.481 294.962 472.332C284.232 475.426 272.293 489.083 260.421 494.066C255.124 496.289 249.588 496.888 244.222 494.52C240.828 493.023 237.895 490.642 235.353 487.97C227.812 480.042 209.835 452.943 205.903 442.643C194.429 412.589 235.863 409.658 242.369 393.617C243.23 391.494 242.898 388.675 242.541 386.482C241.345 379.127 238.745 371.661 236.699 364.493C234.512 356.827 232.625 348.653 229.584 341.291C229.518 341.131 229.449 340.972 229.381 340.813Z" fill="#8DCAE4"/>
<path d="M609.483 301.969C608.52 304.408 608.24 304.045 608.568 306.276C613.245 312.322 651.363 307.38 659.715 307.8C669.38 308.287 679.39 308.712 689.056 308.965C695.591 309.136 702.047 310.237 708.64 310.395C719.756 310.618 730.871 309.929 741.874 308.337C746.444 307.721 754.763 306.516 759.055 305.296C758.922 314.806 759.641 320.631 752.537 329.324C741.217 343.174 701.853 324.091 696.472 342.157C691.656 358.325 686.704 375.086 684.155 391.651C682.641 405.507 725.427 416.343 724.14 433.397C723.21 445.724 713.814 454.435 707.494 464.586C701.959 472.965 696.743 482.591 690.309 490.261C685.823 495.4 681.562 495.79 676.133 496.617C661.861 498.791 635.03 466.713 625.191 472.083C613.906 478.242 594.11 493.483 582.731 501.046C573.671 504.042 538.846 501.281 526.49 502.314C523.125 507.241 520.41 513.556 517.71 518.946C512.485 529.376 507.689 539.748 503.252 550.544C485.329 534.487 474.714 537.408 452.118 537.973C426.23 538.619 405.773 533.643 386.116 554.543C369.733 536.027 361.679 538.962 338.74 536.38C335.881 523.975 347.224 512.348 344.394 504.152C343.54 501.682 341.691 499.726 339.756 498.043C334.782 493.717 328.7 490.655 323.304 486.894C316.907 482.435 310.801 475.809 303.629 472.789C300.793 471.595 297.916 471.482 294.962 472.333C284.232 475.427 272.293 489.084 260.421 494.067C255.124 496.29 249.588 496.889 244.222 494.521C240.828 493.024 237.895 490.643 235.353 487.971C227.812 480.043 209.835 452.944 205.903 442.644C194.429 412.59 235.863 409.659 242.369 393.618C243.23 391.495 242.898 388.676 242.541 386.483C241.345 379.128 238.745 371.662 236.699 364.494C234.512 356.828 232.625 348.654 229.584 341.292C229.518 341.132 229.449 340.973 229.381 340.814C230.196 340.956 230.851 341.032 231.67 341.127L232.384 340.547C232.312 339.499 232.268 338.621 232.254 337.571C232.354 337.478 232.454 337.386 232.555 337.293C242.957 335.76 261.745 332.514 271.59 332.532C278.308 333.382 285.072 335.634 291.855 335.788C295.488 335.871 300.088 334.059 303.371 334.009C318.756 333.772 334.974 337.745 350.024 333.926C352.039 333.415 351.672 324.514 351.62 322.743C353.056 328.665 354.335 338.807 355.301 345.077L361.257 384.462C362.325 391.842 364.366 410.33 367.541 416.399C369.89 420.89 392.818 434.823 398.172 436.52C413.582 432.581 436.444 410.173 449.051 410.725C458.198 411.125 471.183 438.848 478.436 446.75C485.19 454.11 494.511 458.859 504.579 459.265C508.562 459.425 512.18 458.742 515.844 457.206C526.928 452.562 537.137 444.929 547.352 438.623C558.164 431.947 571.158 425.777 580.39 417.048C585.404 412.307 588.773 406.181 590.569 399.556C598.947 368.646 566.335 348.317 567.301 335.345C567.403 333.973 567.951 333.338 568.979 332.456C574.36 327.837 580.85 324.025 586.679 319.955C594.655 314.451 602.272 308.444 609.483 301.969Z" fill="url(#paint0_linear_1054_27900)"/>
<path d="M351.618 322.743C351.474 320.124 350.174 313.53 349.701 310.716L344.801 282.503C340.583 257.754 336.6 232.967 332.852 208.143C331.453 199.324 327.971 184.433 328.241 175.371C328.645 161.818 356.167 147.411 366.113 139.542C371.734 135.094 380.58 135.271 386.856 138.379C402.195 145.973 417.475 154.077 432.716 162.042L520.796 208.146L572.043 234.955C580.207 239.231 591.965 245.373 599.501 250.214C607.683 255.469 613.507 272.978 614.391 282.219C615.078 289.403 614.301 295.921 609.481 301.969C602.27 308.444 594.653 314.451 586.677 319.955C580.848 324.025 574.358 327.837 568.977 332.456C567.949 333.338 567.401 333.973 567.299 335.345C566.333 348.317 598.945 368.646 590.567 399.556C588.771 406.181 585.402 412.307 580.388 417.048C571.156 425.777 558.162 431.947 547.35 438.623C537.135 444.929 526.926 452.562 515.842 457.206C512.178 458.742 508.56 459.425 504.577 459.265C494.509 458.859 485.188 454.11 478.434 446.75C471.181 438.848 458.196 411.125 449.049 410.725C436.442 410.173 413.58 432.581 398.17 436.52C392.816 434.823 369.888 420.89 367.539 416.399C364.364 410.33 362.323 391.842 361.255 384.462L355.299 345.077C354.333 338.807 353.054 328.665 351.618 322.743Z" fill="#075671"/>
<path d="M378.527 177.373C383.833 178.362 397.58 185.257 403.299 187.963C428.429 200.128 453.399 212.621 478.201 225.44L539.301 256.456C547.217 260.484 555.42 264.138 563.207 268.397C565.053 269.407 567.048 270.401 568.357 272.098C569.687 273.823 570.604 276.706 570.15 278.883C568.113 288.67 523.296 303.43 513.884 311.097C512.585 312.156 511.994 313.116 512.157 314.827C513.199 325.821 555.03 374.496 552.752 383.004C551.706 386.911 545.498 389.49 542.304 391.259C533.868 396.899 516.708 409.703 507.889 412.709C505.161 413.639 503.334 412.992 501.183 411.204C496.219 407.079 492.804 399.771 489.455 394.276C484.693 386.464 464.391 350.684 458.683 348.392C456.823 347.645 454.162 349.442 452.727 350.461C448.663 353.343 445.092 357.18 441.405 360.531C432.774 368.375 419.17 380.54 408.581 384.917C406.573 385.748 404.101 386.309 402.046 385.311C399.461 384.055 398.957 381.168 398.193 378.642C394.701 367.104 393.756 354.751 392.027 342.852L384.149 290.787L374.163 226.359C372.36 215.178 370.084 204.008 368.644 192.787C367.533 184.126 370.382 179.746 378.527 177.373Z" fill="url(#paint1_linear_1054_27900)"/>
<path d="M526.491 502.313C538.847 501.28 573.672 504.041 582.732 501.045C582.79 501.167 582.848 501.289 582.906 501.411C601.369 511.643 586.86 523.615 579.214 537.247C590.924 536.1 605.916 536.765 617.984 536.835C644.837 536.991 662.023 532.289 682.323 553.5C689.728 543.58 698.612 538.601 710.816 536.894C723.826 535.093 737.039 536.02 750.124 536.101C758.624 536.154 766.741 535.153 775.169 536.884C786.082 539.127 794.269 544.135 801.147 552.84C813.99 536.335 828.992 535.96 848.505 536.722C872.066 537.641 897.249 530.85 917.922 546.483C926.174 552.725 929.991 562.182 931.165 572.313C931.653 576.484 931.659 580.697 931.184 584.869C930.457 591.323 928.808 597.394 927.274 603.602C924.005 616.823 926.584 627.432 909.477 628.757C900.113 629.482 891.155 628.185 882.065 628.404C897.796 639.128 914.323 645.558 911.373 668.247C909.152 685.328 905.857 702.059 902.619 718.973C900.698 729.259 898.696 740.165 892.35 748.697C884.191 759.934 871.302 766.691 857.795 769.082C848.153 770.141 838.055 769.421 828.366 769.408C818.534 769.394 808.755 769.423 798.971 769.138C785.989 768.759 775.147 762.792 766.475 753.383C751.525 766.237 741.151 770.5 721.394 769.4C695.935 767.982 676.302 774.957 654.609 758.184C642.056 772.921 632.753 769.078 615.134 769.39C607.198 769.53 598.402 769.726 590.587 769.228C588.911 767.986 587.465 766.989 585.973 765.504C580.821 769.455 573.902 770.099 567.604 769.497C557.051 768.489 536.862 772.234 528.234 766.213C524.112 769.263 520.025 770.301 514.922 769.845C501.672 768.661 480.583 772.972 469.049 766.831C460.06 770.916 453.451 769.686 443.842 769.72C438.641 769.739 433.139 770.166 427.974 769.686C424.5 769.39 421.079 768.64 417.8 767.456C414.903 766.4 413.316 765.398 410.845 763.706C395.79 773.005 387.953 768.706 372.352 769.785C333.016 772.507 339.681 753.696 345.732 723.426C348.448 710.391 350.971 697.316 353.3 684.206C335.081 693.131 328.083 691.381 307.762 690.97C306.056 708.657 300.858 726.838 298.145 744.19C293.349 774.869 276.321 770.037 251.594 769.898L210.76 769.854L169.844 769.977C163.959 770.009 155.199 770.536 149.663 770.023C144.161 769.517 138.814 767.924 133.931 765.337C130.42 766.835 125.399 769.103 121.529 769.403C109.075 770.369 96.2869 769.977 83.7819 770.014C79.6759 770.027 74.3569 768.229 70.8069 766.352C56.8449 771.936 46.0663 770.282 31.5818 770.536C12.8072 770.865 -3.92349 769.116 0.811609 745.079C2.87221 733.044 5.34801 720.291 7.61721 708.242L21.9409 633.364C24.4829 620.312 26.9569 607.246 29.3629 594.168C31.98 579.8 34.474 562.483 39.61 548.834C42.4021 541.414 53.4667 536.415 60.9809 536.428C86.4619 536.374 112.301 535.535 137.742 536.495C147.293 536.855 159.075 545.21 164.696 552.657C187.165 531.405 204.772 535.839 233.558 536.001L303.835 536.278C312.948 536.312 330.131 536.918 338.741 536.379C361.68 538.961 369.734 536.026 386.117 554.542C405.774 533.642 426.231 538.618 452.119 537.972C474.715 537.407 485.33 534.486 503.253 550.543C507.69 539.747 512.486 529.375 517.711 518.945C520.411 513.555 523.126 507.24 526.491 502.313ZM792.143 673.231L800.482 673.034L800.763 672.582C798.369 670.555 795.948 668.98 793.357 667.223L792.143 673.231Z" fill="url(#paint2_linear_1054_27900)"/>
<path d="M717.516 549.542C730.446 548.78 743.981 549.589 756.964 549.232C762.3 549.086 767.537 549.169 772.82 549.901C789.014 552.143 798.18 568.633 795.441 583.948C793.821 593.948 791.904 603.622 789.979 613.507L780.031 663.988L773.789 695.762C768.957 721.661 765.999 749.937 734.218 754.396C726.99 754.727 717.321 754.655 709.604 754.479C695.897 753.974 675.737 757.188 663.914 748.708C648.431 737.602 657.644 710.622 660.411 695.358C664.197 673.862 668.24 652.411 672.541 631.012C674.483 621.309 676.381 611.355 678.159 601.628C682.945 575.447 687.037 552.753 717.516 549.542Z" fill="#FEB702"/>
<path d="M730.995 601.487C732.147 594.083 730.44 584.902 740.64 587.524C741.867 588.689 741.483 588.247 741.675 590.422C739.385 600.492 737.458 612.17 735.535 622.419L724.633 680.248C722.687 690.482 720.759 701.025 718.819 711.27C718.185 714.618 715.908 718.697 711.896 718.365C710.385 717.242 709.896 716.292 709.663 714.418C708.954 708.722 718.279 667.023 719.91 658.679C723.623 639.679 726.725 620.349 730.995 601.487Z" fill="#013046"/>
<path d="M730.992 601.487C732.144 594.083 730.437 584.902 740.637 587.524C741.864 588.689 741.48 588.247 741.672 590.422L734.793 590.301C734.13 594.098 733.612 598.602 730.992 601.487Z" fill="black"/>
<path d="M383.126 592.726C387.708 577.186 388.186 563.68 405.215 554.553C408.881 552.592 412.852 551.268 416.961 550.636C432.845 548.083 455.759 549.354 472.015 549.942C516.017 551.534 499.102 595.197 494.307 620.356L476.925 708.826C474.265 722.318 469.988 740.699 468.408 753.877L417.325 753.757C420.411 735.092 423.764 716.472 427.384 697.902C428.325 692.992 430.9 678.26 432.626 674.165C429.11 674.473 420.737 674.998 417.625 673.438C418.092 679.57 413.056 702.899 411.608 709.854L402.617 753.464C385.73 753.689 368.842 753.825 351.953 753.871C352.858 749.545 353.68 745.006 354.3 740.633C358.883 708.262 367.585 676.155 373.142 644.078C376.804 630.689 381.008 606.664 383.126 592.726Z" fill="url(#paint3_linear_1054_27900)"/>
<path d="M417.625 673.439C419.863 671.237 429.405 671.588 432.057 672.961C432.212 673.268 432.544 673.866 432.626 674.166C429.11 674.474 420.737 674.999 417.625 673.439Z" fill="black"/>
<path d="M435.984 590.863C438.17 585.658 445.71 585.343 449.013 590.055C445.607 598.331 440.853 629.4 438.817 639.684C434.375 639.406 430.689 639.376 426.227 639.405C428.811 627.854 434.579 602.248 435.984 590.863Z" fill="#013046"/>
<path d="M435.984 590.863C438.17 585.658 445.71 585.343 449.013 590.055C444.699 590.453 440.315 590.637 435.984 590.863Z" fill="black"/>
<path d="M62.7583 549.545C84.3143 547.27 111.549 551.107 133.553 549.99C146.315 549.341 161.494 564.588 160.449 577.321C160.055 582.122 159.784 587.361 158.755 592.161C155.796 605.739 153.849 620.065 149.29 633.176C144.528 646.869 129.71 652.431 117.832 657.441C123.517 658.866 132.825 660.098 136.495 664.873C142.31 672.441 138.054 688.211 136.446 696.634C134.503 707.007 132.486 717.367 130.395 727.712C128.693 735.834 126.191 745.775 125.457 753.871C108.038 753.74 90.6183 753.73 73.1993 753.842C75.5403 743.674 77.2193 733.278 79.0163 722.992C82.4823 709.175 85.8693 688.773 88.4153 674.465L80.7503 674.315C80.0213 683.319 76.6713 698.967 74.7653 707.958C71.4453 723.619 68.4553 738.016 65.8583 753.865C49.1456 753.715 29.3444 754.974 12.8828 752.917C13.2885 746.129 16.1279 732.815 17.517 725.812L26.5591 680.719L43.3311 595.909C45.6005 584.045 46.7182 564.274 52.863 553.247C54.4363 550.424 59.5803 549.774 62.7583 549.545Z" fill="url(#paint4_linear_1054_27900)"/>
<path d="M96.8432 588.391L106.278 588.458C102.586 604.011 100.78 620.321 96.8062 635.332C93.7012 635.348 90.5962 635.343 87.4922 635.318C90.8472 622.046 94.5202 601.97 96.8432 588.391Z" fill="#013046"/>
<path d="M614.784 549.583C642.513 548.964 684.638 545.92 676.589 587.208C669.297 624.622 674.566 647.025 632.225 654.502C638.566 656.952 651.7 661.496 654.881 667.479C660.571 678.179 655.089 698.064 652.829 709.286C649.848 724.189 646.685 739.057 643.343 753.884L590.829 753.86C594.144 734.72 598.452 715.282 601.869 696.019C603.52 688.243 605.01 680.289 606.548 672.479L596.959 672.393C594.525 684.265 592.457 696.204 590.133 708.1C587.15 723.364 584.024 738.463 581.803 753.864C564.903 753.744 548.002 753.743 531.102 753.858L556.48 621.511C560.72 599.496 565.449 571.066 571.079 549.892C585.572 549.621 600.244 549.754 614.784 549.583Z" fill="url(#paint5_linear_1054_27900)"/>
<path d="M613.385 590.683C614.942 585.973 623.548 585.657 624.504 589.551L624.104 590.892C619.287 602.775 619.402 626.111 612.892 637.596C611.973 639.217 607.396 638.966 605.328 638.987C606.819 628.614 609.056 618.511 610.898 608.229C611.656 603.993 613.59 594.761 613.385 590.683Z" fill="#013046"/>
<path d="M613.383 590.683C614.94 585.973 623.546 585.657 624.502 589.551L624.102 590.892C620.43 590.89 617.048 590.865 613.383 590.683Z" fill="black"/>
<path d="M843.514 679.135C834.351 673.397 824.847 668.179 815.403 662.92C809.312 659.528 802.304 656.514 797.121 651.781C794.494 649.383 792.84 646.783 791.969 643.321C788.432 629.254 799.316 578.898 807.071 566.367C812.227 558.034 820.261 552.527 829.801 550.394C842.644 547.523 856.749 549.287 869.838 549.343C878.082 549.379 886.495 548.566 894.68 549.688C898.869 550.263 902.961 551.503 906.548 553.791C912.47 557.568 915.957 563.738 917.297 570.52C920.056 584.49 914.694 601.166 911.818 614.872C894.395 614.877 874.773 615.63 857.67 614.891C858.668 608.774 860.75 594.351 862.929 589.417C860.634 589.715 855.595 589.696 853.081 589.753C852.475 598.299 848.403 614.12 846.812 623.355C860.642 632.49 876.001 639.565 889.627 648.839C895.854 653.078 900.697 660.585 899.381 668.025C895.98 687.265 892.26 709.993 887.738 728.653C880.544 758.336 845.13 754.371 821.883 754.329C801.567 754.486 772.564 758.159 773.696 728.367C774.263 713.44 778.861 699.385 780.828 684.896C798.208 684.792 815.589 684.797 832.97 684.911C830.896 694.96 828.206 706.79 826.876 716.83L836.295 716.835L843.514 679.135Z" fill="url(#paint6_linear_1054_27900)"/>
<path d="M853.086 589.752C855.354 586.503 858.467 585.184 862.056 587.434C862.774 588.581 862.681 588.168 862.934 589.416C860.639 589.714 855.6 589.695 853.086 589.752Z" fill="black"/>
<path d="M273.177 551.909C273.644 550.917 273.788 549.989 274.993 549.87C283.38 549.084 291.819 550.048 300.248 549.92C309.52 549.772 318.853 549.829 328.121 549.881C342.327 549.962 359.361 547.324 371.513 556.4C383.055 565.02 381.51 578.84 380.354 591.269C381.291 594.24 380.516 598.554 380.613 602.066C381.15 599.413 381.809 594.925 383.125 592.727C381.007 606.665 376.803 630.69 373.141 644.079C373.118 640.968 373.303 638.667 373.56 635.577C372.433 638.231 371.231 641.705 369.54 643.907C357.157 682.089 333.046 678.414 299.057 678.398C295.358 702.963 288.849 729.215 283.934 753.816C267.6 753.578 250.678 753.82 234.297 753.833C239.374 724.812 244.867 695.866 250.776 667.002C254.685 647.404 259.724 624.563 262.606 605.045C262.644 600.636 262.901 597.3 263.563 592.942C264.017 589.948 266.335 584.031 265.173 581.672C262.172 580.041 252.648 580.252 248.416 579.896C252.982 579.673 258.736 579.831 263.391 579.829C264.246 571.389 266.976 558.613 268.883 550.421L273.177 551.909Z" fill="url(#paint7_linear_1054_27900)"/>
<path d="M268.881 550.42L273.175 551.908C270.789 566.938 266.932 582.072 264.256 597.087C263.811 599.583 263.253 602.639 262.604 605.044C262.642 600.635 262.899 597.299 263.561 592.941C264.015 589.947 266.333 584.03 265.171 581.671C262.17 580.04 252.646 580.251 248.414 579.895C252.98 579.672 258.734 579.83 263.389 579.828C264.244 571.388 266.974 558.612 268.881 550.42Z" fill="#013046"/>
<path d="M380.353 591.27C381.29 594.241 380.515 598.555 380.612 602.067C381.149 599.414 381.808 594.926 383.124 592.728C381.006 606.666 376.802 630.691 373.14 644.08C373.117 640.969 373.302 638.668 373.559 635.578C372.432 638.232 371.23 641.706 369.539 643.908C374.665 625.678 377.659 610.058 380.353 591.27Z" fill="black"/>
<path d="M318.523 588.3C321.816 588.126 325.93 587.689 328.689 589.428C329.097 591.347 320.338 635.845 319.119 640.272C315.63 640.015 311.855 639.939 308.336 639.804C311.833 625.638 316.123 602.697 318.523 588.3Z" fill="#013046"/>
<path d="M229.381 753.97C211.319 753.526 193.14 754.205 175.028 753.886C164.286 753.762 151.794 754.648 141.374 752.639C128.222 750.103 137.24 721.83 139.038 712.717C141.708 699.077 144.305 685.423 146.83 671.755C150.515 651.406 154.427 631.098 158.564 610.836C160.673 599.967 162.49 587.755 165.372 577.291C167.878 568.19 176.183 558.006 184.609 553.806C187.386 552.421 192.922 550.221 195.813 550.127C207.515 549.744 260.979 548.007 268.878 550.42C266.971 558.612 264.241 571.388 263.386 579.828C258.731 579.83 252.977 579.672 248.411 579.895C242.092 579.594 221.141 577.789 217.494 582.673C214.541 586.628 212.647 601.614 211.64 607.197C209.792 617.136 207.73 627.035 205.458 636.886C220.551 637.636 236.621 636.763 252.209 637.294C250.054 647.684 247.918 657.716 246.149 668.189C230.26 668.046 215.196 667.892 199.325 668.244C196.161 684.79 190.887 706.281 189.452 722.769C203.713 722.902 222.178 722.115 235.945 723.116C232.66 734.484 232.063 743.302 229.381 753.97Z" fill="url(#paint8_linear_1054_27900)"/>
<path d="M510.876 559.815C528.356 559.66 545.838 559.696 563.317 559.924C561.785 566.119 560.276 575.984 559.077 582.475L550.835 626.535C542.82 669.089 534.471 711.579 525.789 754.002C508.64 753.604 490.541 753.849 473.305 753.722C474.75 748.587 476.564 736.647 477.671 730.695L485.937 687.405C494.119 645.025 503.119 602.165 510.876 559.815Z" fill="#FEB702"/>
<path d="M538.208 513.117C547.961 512.622 569.622 512.431 578.891 513.35C573.904 522.646 560.895 538.719 554.164 547.565C551.74 551.19 522.154 549.936 516.562 549.917C521.536 539.005 527.657 525.304 534.005 515.081C535.167 513.21 536.311 513.354 538.208 513.117Z" fill="#FEB702"/>
<path d="M227.69 592.838C236.944 592.635 242.858 592.405 252.16 593.665C252.121 598.704 249.762 620.773 247.225 624.136L245.716 624.342C237.399 624.642 229.079 624.869 220.758 625.023C223.367 614.233 225.333 603.655 227.69 592.838Z" fill="black"/>
<path d="M209.189 681.293L235.929 681.334C233.606 690.893 232.018 701.113 229.789 710.867C225.293 711.827 209.517 711.438 204.039 711.392C205.907 701.385 207.623 691.351 209.189 681.293Z" fill="black"/>
<defs>
<linearGradient id="paint0_linear_1054_27900" x1="492.376" y1="548.989" x2="477.465" y2="313.519" gradientUnits="userSpaceOnUse">
<stop stop-color="#00B6F7"/>
<stop offset="1" stop-color="#57D5FA"/>
</linearGradient>
<linearGradient id="paint1_linear_1054_27900" x1="484.25" y1="413.769" x2="463.777" y2="171.031" gradientUnits="userSpaceOnUse">
<stop stop-color="#9FE6FC"/>
<stop offset="1" stop-color="#D9F4F7"/>
</linearGradient>
<linearGradient id="paint2_linear_1054_27900" x1="464.412" y1="774.181" x2="467.409" y2="500.59" gradientUnits="userSpaceOnUse">
<stop stop-color="#092C36"/>
<stop offset="1" stop-color="#065162"/>
</linearGradient>
<linearGradient id="paint3_linear_1054_27900" x1="418.153" y1="758.464" x2="438.032" y2="547.258" gradientUnits="userSpaceOnUse">
<stop stop-color="#F38908"/>
<stop offset="1" stop-color="#FEAF06"/>
</linearGradient>
<linearGradient id="paint4_linear_1054_27900" x1="90.0558" y1="754.195" x2="81.7934" y2="549.27" gradientUnits="userSpaceOnUse">
<stop stop-color="#F88F09"/>
<stop offset="1" stop-color="#FDAD07"/>
</linearGradient>
<linearGradient id="paint5_linear_1054_27900" x1="604.187" y1="752.88" x2="603.985" y2="549.865" gradientUnits="userSpaceOnUse">
<stop stop-color="#F78C05"/>
<stop offset="1" stop-color="#FDB209"/>
</linearGradient>
<linearGradient id="paint6_linear_1054_27900" x1="866.602" y1="750.321" x2="823.623" y2="552.246" gradientUnits="userSpaceOnUse">
<stop stop-color="#F08A06"/>
<stop offset="1" stop-color="#FBAC09"/>
</linearGradient>
<linearGradient id="paint7_linear_1054_27900" x1="307.218" y1="752.847" x2="308.648" y2="550.05" gradientUnits="userSpaceOnUse">
<stop stop-color="#F38805"/>
<stop offset="1" stop-color="#FCB209"/>
</linearGradient>
<linearGradient id="paint8_linear_1054_27900" x1="186.816" y1="757.6" x2="213.763" y2="543.809" gradientUnits="userSpaceOnUse">
<stop stop-color="#F58C07"/>
<stop offset="1" stop-color="#FDB009"/>
</linearGradient>
</defs>
</svg>
